<svg width="375" height="141" viewBox="0 0 375 141" fill="none" xmlns="http://www.w3.org/2000/svg">
<path d="M242.824 45.4529C244.693 52.5682 248.587 61.1235 250.3 64.5117L262.916 67.847C265.253 45.1352 262.293 33.2234 261.203 28.1411C260.454 24.647 247.185 12.2587 240.488 19.4058C233.79 26.5528 228.339 44.1823 232.388 47.1999C235.628 49.6141 240.695 47.0411 242.824 45.4529Z" fill="white"/>
<path d="M273.819 29.2528C268.337 44.8811 269.043 62.2353 270.081 68.9588L284.878 65.3058C290.452 56.7464 294.171 49.8644 296.535 44.8176C299.436 38.6234 300.396 31.794 300.624 28.6175C302.025 9.09236 299.295 3.09289 295.937 2.09397C292.199 0.982204 280.673 9.71751 273.819 29.2528Z" fill="white"/>
<path d="M252.481 60.0646C250.113 60.0646 246.199 49.3705 244.537 44.0234C250.02 40.9093 255.544 34.7847 257.621 32.1117C259.334 41.1646 255.44 60.0646 252.481 60.0646Z" fill="#FF8787"/>
<path d="M279.115 30.9999C284.598 14.4822 291.783 10.2469 294.691 10.194C299.55 11.0834 297.546 28.247 295.937 36.7176C290.579 54.2517 283.32 60.647 280.361 61.6529C275.751 51.9964 277.609 37.194 279.115 30.9999Z" fill="#FF8787"/>
<g filter="url(#filter0_d)">
<path d="M249.054 66.6411V70.4529C249.054 76.8059 250.404 80.6176 251.079 81.7294C251.442 82.1529 252.356 83 253.104 83C253.851 83 254.765 82.5765 255.129 82.3647C258.815 80.5647 266.405 76.9647 267.278 76.9647C268.15 76.9647 268.991 77.3882 269.302 77.6C273.144 79.2941 281.109 82.6823 282.23 82.6823C283.352 82.6823 283.943 81.3059 284.099 80.6176C284.566 76.9117 285.47 68.8647 285.345 66.3235C285.189 63.147 283.788 62.5117 281.296 62.5117C279.302 62.5117 277.142 63.3588 276.311 63.7823L270.548 66.6411C269.822 67.1706 268.15 68.2294 267.278 68.2294C266.405 68.2294 265.045 67.3823 264.474 66.9588L259.022 64.1C257.776 63.4117 254.661 62.067 252.169 62.1941C249.677 62.3211 249.054 65.2117 249.054 66.6411Z" fill="#FF8787"/>
<path d="M261.826 70.9294C260.082 69.1506 257.153 68.6 255.907 68.5471C255.035 68.5471 254.921 69.0765 254.973 69.3412C255.077 69.7118 255.72 70.6435 257.465 71.4059C259.209 72.1682 258.192 72.8882 257.465 73.1529C256.53 73.5235 254.692 74.5506 254.817 75.6941C254.942 76.8376 256.115 76.5941 256.686 76.3294L261.515 74.2647C262.345 73.8941 263.571 72.7082 261.826 70.9294Z" fill="white"/>
<path d="M272.262 71.2471C274.006 69.4682 276.934 68.9176 278.18 68.8647C279.053 68.8647 279.167 69.3941 279.115 69.6588C279.011 70.0294 278.367 70.9612 276.623 71.7235C274.878 72.4859 275.896 73.2059 276.623 73.4706C277.557 73.8412 279.395 74.8682 279.271 76.0117C279.146 77.1553 277.973 76.9117 277.402 76.647L272.573 74.5823C271.743 74.2118 270.517 73.0259 272.262 71.2471Z" fill="white"/>
</g>
<path d="M8.34766 115.094C7.97266 110.781 7.48047 106.516 6.87109 102.297C6.28516 98.0781 5.57031 93.8242 4.72656 89.5352C4.65625 89.2539 4.5625 89.0312 4.44531 88.8672C4.35156 88.6797 4.21094 88.5859 4.02344 88.5859C3.88281 88.5859 3.71875 88.5977 3.53125 88.6211C3.36719 88.6445 3.19141 88.6562 3.00391 88.6562C2.11328 88.6562 1.42188 88.4336 0.929688 87.9883C0.4375 87.543 0.191406 86.9805 0.191406 86.3008C0.191406 85.5273 0.507812 84.7773 1.14062 84.0508C1.79688 83.3242 2.65234 82.6445 3.70703 82.0117C4.76172 81.3555 5.96875 80.7578 7.32812 80.2188C8.6875 79.6797 10.082 79.2227 11.5117 78.8477C12.9648 78.4492 14.3945 78.1445 15.8008 77.9336C17.207 77.6992 18.4844 77.582 19.6328 77.582C21.7188 77.582 23.5117 77.8398 25.0117 78.3555C26.5352 78.8711 27.7773 79.5508 28.7383 80.3945C29.7227 81.2383 30.4375 82.2109 30.8828 83.3125C31.3516 84.4141 31.5859 85.5508 31.5859 86.7227C31.5859 87.8945 31.3281 89.1836 30.8125 90.5898C30.3203 91.9727 29.4766 93.2969 28.2812 94.5625C28.1406 94.7266 28.0469 94.8672 28 94.9844C27.9531 95.0781 27.9297 95.1836 27.9297 95.3008C27.9297 95.5117 28.1641 95.6523 28.6328 95.7227C29.9922 95.8398 31.3047 96.168 32.5703 96.707C33.8594 97.2461 34.9844 97.9492 35.9453 98.8164C36.9062 99.6602 37.6797 100.656 38.2656 101.805C38.8516 102.953 39.1445 104.172 39.1445 105.461C39.1445 107.266 38.793 108.848 38.0898 110.207C37.4102 111.543 36.4609 112.656 35.2422 113.547C34.0234 114.438 32.5703 115.094 30.8828 115.516C29.2188 115.961 27.4141 116.184 25.4688 116.184C23.9453 116.184 22.4102 116.043 20.8633 115.762C19.3398 115.504 17.8516 115.164 16.3984 114.742C16.3047 114.695 16.1641 114.672 15.9766 114.672C15.5781 114.672 15.2617 114.906 15.0273 115.375C14.6289 116.172 14.0547 116.793 13.3047 117.238C12.5781 117.684 11.8398 117.906 11.0898 117.906C10.4102 117.906 9.8125 117.684 9.29688 117.238C8.78125 116.816 8.46484 116.102 8.34766 115.094ZM15.168 101.699C14.6523 101.887 14.3945 102.25 14.3945 102.789C14.3945 102.859 14.418 103.117 14.4648 103.562C14.5352 104.008 14.6172 104.488 14.7109 105.004C14.8047 105.613 14.9102 106.27 15.0273 106.973C15.0977 107.582 15.4141 107.957 15.9766 108.098C16.7031 108.309 17.5 108.531 18.3672 108.766C19.2344 108.977 20.1367 109.176 21.0742 109.363C22.0117 109.551 22.9609 109.703 23.9219 109.82C24.8828 109.938 25.8086 109.996 26.6992 109.996C27.3789 109.996 28.0352 109.926 28.668 109.785C29.3008 109.621 29.8633 109.375 30.3555 109.047C30.8477 108.719 31.2344 108.309 31.5156 107.816C31.8203 107.301 31.9727 106.68 31.9727 105.953C31.9727 104.898 31.6797 104.008 31.0938 103.281C30.5078 102.555 29.7695 101.969 28.8789 101.523C27.9883 101.078 27.0156 100.762 25.9609 100.574C24.9062 100.363 23.9102 100.258 22.9727 100.258C21.707 100.258 20.418 100.398 19.1055 100.68C17.8164 100.961 16.5039 101.301 15.168 101.699ZM12.4609 84.9297C12.2031 85 12.0039 85.082 11.8633 85.1758C11.7227 85.2695 11.6523 85.4453 11.6523 85.7031C11.6523 85.9609 11.6992 86.4297 11.793 87.1094C11.9102 87.7656 12.0391 88.5156 12.1797 89.3594C12.3438 90.2031 12.5078 91.082 12.6719 91.9961C12.8594 92.8867 13.0234 93.6953 13.1641 94.4219C13.2109 94.8672 13.3047 95.1719 13.4453 95.3359C13.6094 95.5 13.8086 95.582 14.043 95.582C14.1836 95.582 14.3594 95.5586 14.5703 95.5117C14.8047 95.4414 15.1094 95.3477 15.4844 95.2305C16.4453 94.9258 17.4531 94.5859 18.5078 94.2109C19.5859 93.8125 20.5586 93.3438 21.4258 92.8047C22.3164 92.2656 23.043 91.6328 23.6055 90.9062C24.1914 90.1562 24.4844 89.2891 24.4844 88.3047C24.4844 87.5312 24.3203 86.8867 23.9922 86.3711C23.6641 85.832 23.207 85.3984 22.6211 85.0703C22.0352 84.7188 21.3555 84.4727 20.582 84.332C19.8086 84.1914 18.9648 84.1211 18.0508 84.1211C17.1133 84.1211 16.1641 84.1914 15.2031 84.332C14.2656 84.4727 13.3516 84.6719 12.4609 84.9297ZM47.0645 99.5547C47.0645 102.695 47.545 105.121 48.5059 106.832C49.4669 108.543 50.8614 109.398 52.6895 109.398C53.838 109.398 54.8927 109.059 55.8536 108.379C56.838 107.699 57.6817 106.75 58.3848 105.531C59.088 104.312 59.627 102.871 60.002 101.207C60.4005 99.5195 60.5997 97.6914 60.5997 95.7227C60.5997 94.5273 60.5528 93.4961 60.4591 92.6289C60.3653 91.7383 60.2598 90.9531 60.1427 90.2734C60.0489 89.5703 59.9552 88.9492 59.8614 88.4102C59.7677 87.8711 59.7208 87.3555 59.7208 86.8633C59.7208 86.1133 60.0372 85.5742 60.67 85.2461C61.3028 84.8945 62.3106 84.7188 63.6934 84.7188C65.4512 84.7188 66.8106 85.1172 67.7716 85.9141C68.7559 86.7109 69.2481 87.8711 69.2481 89.3945C69.2481 93.543 68.838 97.2695 68.0177 100.574C67.2208 103.879 66.0606 106.691 64.5372 109.012C63.0372 111.309 61.2091 113.078 59.0528 114.32C56.8966 115.562 54.4825 116.184 51.8106 116.184C49.9122 116.184 48.1544 115.785 46.5372 114.988C44.9434 114.215 43.5606 113.125 42.3887 111.719C41.2403 110.289 40.338 108.602 39.6817 106.656C39.0255 104.688 38.6973 102.531 38.6973 100.188C38.6973 99.2969 38.7208 98.3477 38.7677 97.3398C38.8145 96.332 38.8848 95.2539 38.9786 94.1055C39.0723 92.9336 39.1895 91.668 39.3302 90.3086C39.4942 88.9492 39.67 87.4727 39.8575 85.8789C39.9278 85.1992 40.2442 84.6602 40.8067 84.2617C41.3927 83.8398 42.1309 83.6289 43.0216 83.6289C43.8184 83.6289 44.5684 83.7109 45.2716 83.875C45.9747 84.0391 46.5723 84.2617 47.0645 84.543C47.5802 84.8242 47.9786 85.1523 48.2598 85.5273C48.5645 85.9023 48.7169 86.3008 48.7169 86.7227C48.7169 87.1445 48.6231 87.8125 48.4356 88.7266C48.2716 89.6172 48.0841 90.6484 47.8731 91.8203C47.6856 92.9688 47.4981 94.2227 47.3106 95.582C47.1466 96.918 47.0645 98.2422 47.0645 99.5547ZM73.0197 83.6289C73.0197 83.2773 73.172 82.9375 73.4767 82.6094C73.7814 82.2578 74.1798 81.9531 74.672 81.6953C75.1642 81.4141 75.715 81.1914 76.3244 81.0273C76.9572 80.8398 77.59 80.7461 78.2228 80.7461C78.5744 80.7461 78.8673 80.8398 79.1017 81.0273C79.3595 81.2148 79.5822 81.5781 79.7697 82.1172C79.9572 82.6328 80.1212 83.3711 80.2619 84.332C80.4259 85.2695 80.5783 86.5 80.7189 88.0234C80.8127 88.4922 80.8947 88.8555 80.965 89.1133C81.0587 89.3477 81.1759 89.4648 81.3166 89.4648C81.5275 89.4648 81.7384 89.1016 81.9494 88.375C83.6603 83.4297 86.133 80.957 89.3673 80.957C90.8673 80.957 92.2267 81.4258 93.4455 82.3633C94.6877 83.3008 95.8361 84.8359 96.8908 86.9688C97.9689 89.0781 98.9884 91.8672 99.9494 95.3359C100.91 98.7812 101.871 103.035 102.832 108.098C102.879 108.355 102.914 108.59 102.938 108.801C102.961 109.012 102.973 109.211 102.973 109.398C102.973 109.938 102.844 110.406 102.586 110.805C102.352 111.18 102.035 111.496 101.637 111.754C101.238 111.988 100.793 112.164 100.301 112.281C99.8087 112.422 99.3166 112.492 98.8244 112.492C97.84 112.492 97.1252 112.387 96.6798 112.176C96.258 111.965 95.9884 111.566 95.8712 110.98C95.1916 107.418 94.5236 104.254 93.8673 101.488C93.2345 98.7227 92.6017 96.4023 91.9689 94.5273C91.3595 92.6289 90.7502 91.1875 90.1408 90.2031C89.5314 89.2188 88.922 88.7266 88.3127 88.7266C87.7033 88.7266 87.1291 89.1133 86.59 89.8867C86.0744 90.6367 85.5705 91.8203 85.0783 93.4375C84.5861 95.0547 84.1056 97.1055 83.6369 99.5898C83.1916 102.074 82.758 105.039 82.3361 108.484C82.2189 109.422 81.7502 110.172 80.9298 110.734C80.1095 111.297 79.0666 111.578 77.8009 111.578C76.9572 111.578 76.3127 111.402 75.8673 111.051C75.422 110.699 75.1759 110.219 75.1291 109.609C74.9181 104.734 74.6837 100.727 74.4259 97.5859C74.1916 94.4219 73.9689 91.8906 73.758 89.9922C73.547 88.0703 73.3712 86.6406 73.2306 85.7031C73.09 84.7656 73.0197 84.0742 73.0197 83.6289ZM106.182 83.6289C106.182 83.2773 106.334 82.9375 106.639 82.6094C106.944 82.2578 107.342 81.9531 107.834 81.6953C108.326 81.4141 108.877 81.1914 109.487 81.0273C110.119 80.8398 110.752 80.7461 111.385 80.7461C111.737 80.7461 112.03 80.8398 112.264 81.0273C112.522 81.2148 112.744 81.5781 112.932 82.1172C113.119 82.6328 113.283 83.3711 113.424 84.332C113.588 85.2695 113.74 86.5 113.881 88.0234C113.975 88.4922 114.057 88.8555 114.127 89.1133C114.221 89.3477 114.338 89.4648 114.479 89.4648C114.69 89.4648 114.901 89.1016 115.112 88.375C116.823 83.4297 119.295 80.957 122.53 80.957C124.03 80.957 125.389 81.4258 126.608 82.3633C127.85 83.3008 128.998 84.8359 130.053 86.9688C131.131 89.0781 132.151 91.8672 133.112 95.3359C134.073 98.7812 135.033 103.035 135.994 108.098C136.041 108.355 136.076 108.59 136.1 108.801C136.123 109.012 136.135 109.211 136.135 109.398C136.135 109.938 136.006 110.406 135.748 110.805C135.514 111.18 135.198 111.496 134.799 111.754C134.401 111.988 133.955 112.164 133.463 112.281C132.971 112.422 132.479 112.492 131.987 112.492C131.002 112.492 130.287 112.387 129.842 112.176C129.42 111.965 129.151 111.566 129.033 110.98C128.354 107.418 127.686 104.254 127.03 101.488C126.397 98.7227 125.764 96.4023 125.131 94.5273C124.522 92.6289 123.912 91.1875 123.303 90.2031C122.694 89.2188 122.084 88.7266 121.475 88.7266C120.865 88.7266 120.291 89.1133 119.752 89.8867C119.237 90.6367 118.733 91.8203 118.24 93.4375C117.748 95.0547 117.268 97.1055 116.799 99.5898C116.354 102.074 115.92 105.039 115.498 108.484C115.381 109.422 114.912 110.172 114.092 110.734C113.272 111.297 112.229 111.578 110.963 111.578C110.119 111.578 109.475 111.402 109.03 111.051C108.584 110.699 108.338 110.219 108.291 109.609C108.08 104.734 107.846 100.727 107.588 97.5859C107.354 94.4219 107.131 91.8906 106.92 89.9922C106.709 88.0703 106.533 86.6406 106.393 85.7031C106.252 84.7656 106.182 84.0742 106.182 83.6289ZM153.407 112.949C152 112.949 150.594 112.609 149.188 111.93C147.782 111.227 146.434 110.277 145.145 109.082C143.856 107.887 142.66 106.48 141.559 104.863C140.457 103.223 139.496 101.465 138.676 99.5898C137.856 97.6914 137.211 95.7109 136.742 93.6484C136.274 91.5859 136.039 89.5234 136.039 87.4609C136.039 85.8672 136.367 84.7305 137.024 84.0508C137.68 83.3477 138.746 82.9961 140.223 82.9961C142.075 82.9961 143.106 83.7578 143.317 85.2812C143.739 88.5156 144.325 91.4336 145.075 94.0352C145.825 96.6367 146.703 98.8516 147.711 100.68C148.742 102.508 149.879 103.914 151.121 104.898C152.387 105.883 153.723 106.375 155.129 106.375C156.137 106.375 157.086 106.129 157.977 105.637C158.867 105.121 159.641 104.406 160.297 103.492C160.532 103.141 160.684 102.801 160.754 102.473C160.848 102.145 160.918 101.77 160.965 101.348C161.082 99.6836 161.211 98.0547 161.352 96.4609C161.516 94.8438 161.668 93.2266 161.809 91.6094C161.856 90.9062 161.95 90.332 162.09 89.8867C162.231 89.4414 162.442 89.0898 162.723 88.832C163.004 88.5742 163.367 88.3984 163.813 88.3047C164.282 88.2109 164.867 88.1641 165.571 88.1641C166.367 88.1641 167.047 88.2812 167.61 88.5156C168.172 88.7266 168.629 89.0898 168.981 89.6055C169.332 90.0977 169.578 90.7539 169.719 91.5742C169.883 92.3711 169.965 93.3672 169.965 94.5625C169.965 95.5938 169.883 96.4961 169.719 97.2695C169.578 98.0195 169.403 98.7344 169.192 99.4141C169.004 100.07 168.817 100.727 168.629 101.383C168.465 102.016 168.36 102.719 168.313 103.492C168.196 105.438 168.09 107.125 167.996 108.555C167.903 109.961 167.821 111.168 167.75 112.176C167.703 113.184 167.657 114.051 167.61 114.777C167.586 115.504 167.563 116.148 167.539 116.711C167.516 117.297 167.504 117.848 167.504 118.363C167.504 118.879 167.504 119.441 167.504 120.051C167.504 121.152 167.551 122.348 167.645 123.637C167.739 124.949 167.832 126.203 167.926 127.398C168.043 128.594 168.149 129.648 168.242 130.562C168.336 131.477 168.383 132.109 168.383 132.461C168.383 132.906 168.242 133.328 167.961 133.727C167.68 134.125 167.305 134.477 166.836 134.781C166.367 135.086 165.817 135.32 165.184 135.484C164.551 135.672 163.883 135.766 163.18 135.766C162.571 135.766 162.078 135.555 161.703 135.133C161.352 134.734 161.153 134.195 161.106 133.516C161.035 132.625 160.977 131.535 160.93 130.246C160.883 128.98 160.836 127.621 160.789 126.168C160.742 124.738 160.707 123.273 160.684 121.773C160.684 120.297 160.672 118.914 160.649 117.625C160.625 116.359 160.614 115.246 160.614 114.285C160.614 113.324 160.614 112.633 160.614 112.211C160.614 111.789 160.567 111.496 160.473 111.332C160.379 111.145 160.203 111.051 159.946 111.051C159.805 111.051 159.617 111.098 159.383 111.191C159.149 111.262 158.879 111.391 158.575 111.578C157.754 112.07 156.922 112.422 156.078 112.633C155.235 112.844 154.344 112.949 153.407 112.949ZM198.215 114.391C197.536 114.508 196.926 114.637 196.387 114.777C195.848 114.941 195.18 115.023 194.383 115.023C193.516 115.023 192.848 114.777 192.379 114.285C191.911 113.793 191.676 113.242 191.676 112.633C191.676 112.141 191.758 111.508 191.922 110.734C192.086 109.938 192.168 109.141 192.168 108.344C192.004 105.32 191.782 102.332 191.5 99.3789C191.243 96.4023 190.985 93.6836 190.727 91.2227C190.469 88.7617 190.247 86.6641 190.059 84.9297C189.872 83.1719 189.778 81.9766 189.778 81.3438C189.778 80.9219 189.883 80.5352 190.094 80.1836C190.305 79.8086 190.598 79.4805 190.973 79.1992C191.348 78.918 191.782 78.707 192.274 78.5664C192.79 78.4023 193.329 78.3203 193.891 78.3203C194.993 78.3203 195.801 78.4961 196.317 78.8477C196.833 79.1758 197.149 79.7148 197.266 80.4648C197.922 85.5039 198.391 90.1328 198.672 94.3516C198.977 98.5469 199.188 102.484 199.305 106.164C199.305 106.703 199.446 107.113 199.727 107.395C200.032 107.676 200.418 107.816 200.887 107.816C201.825 107.816 202.774 107.77 203.735 107.676C204.696 107.559 205.657 107.441 206.618 107.324C207.579 107.207 208.528 107.102 209.465 107.008C210.426 106.891 211.352 106.832 212.243 106.832C212.829 106.832 213.297 106.902 213.649 107.043C214.024 107.184 214.305 107.371 214.493 107.605C214.704 107.84 214.833 108.109 214.879 108.414C214.95 108.695 214.985 108.977 214.985 109.258C214.985 109.703 214.938 110.148 214.844 110.594C214.75 111.039 214.586 111.449 214.352 111.824C214.118 112.176 213.801 112.469 213.403 112.703C213.004 112.961 212.5 113.113 211.891 113.16C209.008 113.441 206.372 113.652 203.981 113.793C201.614 113.934 199.692 114.133 198.215 114.391ZM219.67 76.1406C218.991 76.1406 218.346 76.0469 217.737 75.8594C217.151 75.6484 216.635 75.3672 216.19 75.0156C215.768 74.6406 215.428 74.207 215.17 73.7148C214.913 73.2227 214.784 72.6836 214.784 72.0977C214.784 71.1133 215.17 70.3164 215.944 69.707C216.741 69.0977 217.795 68.793 219.108 68.793C219.717 68.793 220.303 68.9102 220.866 69.1445C221.428 69.3555 221.92 69.6484 222.342 70.0234C222.788 70.3984 223.139 70.8438 223.397 71.3594C223.655 71.8516 223.784 72.3672 223.784 72.9062C223.784 73.9141 223.409 74.7109 222.659 75.2969C221.932 75.8594 220.936 76.1406 219.67 76.1406ZM214.854 86.8633C214.854 86.043 215.206 85.375 215.909 84.8594C216.635 84.3203 217.585 84.0508 218.756 84.0508C220.866 84.0508 221.991 84.7773 222.131 86.2305C222.225 87.2383 222.319 88.375 222.413 89.6406C222.53 90.9062 222.635 92.2539 222.729 93.6836C222.846 95.0898 222.94 96.5547 223.01 98.0781C223.104 99.5781 223.186 101.066 223.256 102.543C223.327 103.996 223.385 105.402 223.432 106.762C223.479 108.121 223.503 109.363 223.503 110.488C223.503 111.66 223.081 112.539 222.237 113.125C221.417 113.711 220.21 114.004 218.616 114.004C217.889 114.004 217.315 113.828 216.893 113.477C216.495 113.148 216.295 112.656 216.295 112C216.295 108.766 216.213 105.742 216.049 102.93C215.909 100.094 215.745 97.5742 215.557 95.3711C215.393 93.168 215.229 91.3398 215.065 89.8867C214.924 88.4102 214.854 87.4023 214.854 86.8633ZM241.337 82.9961C242.555 82.9961 243.739 83.1719 244.887 83.5234C246.036 83.875 247.044 84.3555 247.911 84.9648C248.801 85.5508 249.516 86.2305 250.055 87.0039C250.594 87.7539 250.864 88.5273 250.864 89.3242C250.864 89.8398 250.758 90.3438 250.548 90.8359C250.337 91.3047 250.055 91.7266 249.704 92.1016C249.352 92.4531 248.954 92.7461 248.508 92.9805C248.063 93.1914 247.594 93.2969 247.102 93.2969C246.563 93.2969 246.071 93.0977 245.626 92.6992C245.18 92.2773 244.7 91.8203 244.184 91.3281C243.692 90.8125 243.13 90.3555 242.497 89.957C241.887 89.5352 241.149 89.3242 240.282 89.3242C239.438 89.3242 238.676 89.5234 237.997 89.9219C237.317 90.3203 236.743 90.8828 236.274 91.6094C235.829 92.3125 235.477 93.1562 235.219 94.1406C234.985 95.1016 234.868 96.1562 234.868 97.3047C234.868 100.586 235.489 103.094 236.731 104.828C237.973 106.539 239.755 107.395 242.075 107.395C243.176 107.395 244.114 107.219 244.887 106.867C245.684 106.516 246.376 106.129 246.962 105.707C247.571 105.285 248.122 104.898 248.614 104.547C249.106 104.195 249.61 104.02 250.126 104.02C250.407 104.02 250.688 104.113 250.969 104.301C251.251 104.465 251.497 104.688 251.708 104.969C251.942 105.227 252.13 105.52 252.27 105.848C252.434 106.176 252.516 106.504 252.516 106.832C252.516 107.605 252.13 108.402 251.356 109.223C250.606 110.043 249.633 110.793 248.438 111.473C247.243 112.129 245.907 112.668 244.43 113.09C242.977 113.512 241.559 113.723 240.176 113.723C238.325 113.723 236.626 113.359 235.079 112.633C233.532 111.93 232.196 110.945 231.071 109.68C229.946 108.391 229.067 106.855 228.434 105.074C227.825 103.293 227.52 101.324 227.52 99.168C227.52 96.8242 227.86 94.668 228.54 92.6992C229.243 90.7305 230.204 89.0312 231.423 87.6016C232.665 86.1484 234.13 85.0234 235.817 84.2266C237.505 83.4062 239.344 82.9961 241.337 82.9961ZM252.772 100.328C252.772 99.9297 252.819 99.4844 252.913 98.9922C253.007 98.5 253.053 97.9609 253.053 97.375C253.053 96.9766 252.878 96.6719 252.526 96.4609C252.198 96.25 251.823 96.0156 251.401 95.7578C250.979 95.5 250.592 95.1719 250.241 94.7734C249.913 94.375 249.749 93.8008 249.749 93.0508C249.749 92.5117 249.889 91.9727 250.171 91.4336C250.475 90.8945 250.909 90.4023 251.471 89.957C252.854 88.9258 254.284 88 255.76 87.1797C257.26 86.3594 258.749 85.668 260.225 85.1055C261.725 84.543 263.202 84.1094 264.655 83.8047C266.108 83.5 267.503 83.3477 268.839 83.3477C271.089 83.3477 273.198 83.7695 275.167 84.6133C277.159 85.4336 278.882 86.5703 280.335 88.0234C281.811 89.4531 282.971 91.1406 283.815 93.0859C284.682 95.0078 285.116 97.0703 285.116 99.2734C285.116 101.43 284.659 103.48 283.745 105.426C282.854 107.348 281.647 109.035 280.124 110.488C278.6 111.941 276.807 113.09 274.745 113.934C272.706 114.801 270.55 115.234 268.276 115.234C266.05 115.234 263.987 114.859 262.089 114.109C260.19 113.359 258.55 112.328 257.167 111.016C255.784 109.68 254.706 108.109 253.932 106.305C253.159 104.477 252.772 102.484 252.772 100.328ZM269.05 108.906C270.034 108.906 271.053 108.707 272.108 108.309C273.163 107.91 274.124 107.336 274.991 106.586C275.882 105.812 276.608 104.875 277.171 103.773C277.757 102.672 278.05 101.43 278.05 100.047C278.05 98.6406 277.792 97.3281 277.276 96.1094C276.76 94.8906 276.046 93.8359 275.132 92.9453C274.241 92.0312 273.175 91.3164 271.932 90.8008C270.714 90.2852 269.389 90.0273 267.96 90.0273C265.358 90.0273 263.366 90.707 261.983 92.0664C260.6 93.4023 259.909 95.4648 259.909 98.2539C259.909 99.7773 260.132 101.195 260.577 102.508C261.046 103.797 261.69 104.922 262.51 105.883C263.331 106.82 264.292 107.559 265.393 108.098C266.518 108.637 267.737 108.906 269.05 108.906ZM307.696 85.7031C306.829 85.7031 306.067 85.9375 305.411 86.4062C304.755 86.8516 304.192 87.4844 303.723 88.3047C303.255 89.1016 302.868 90.0508 302.563 91.1523C302.259 92.2305 302.013 93.4141 301.825 94.7031C301.638 95.9922 301.509 97.3398 301.438 98.7461C301.368 100.152 301.333 101.57 301.333 103C301.333 104.875 301.403 106.727 301.544 108.555C301.708 110.359 301.79 112.035 301.79 113.582C301.79 114.59 301.415 115.375 300.665 115.938C299.915 116.523 298.848 116.816 297.466 116.816C297.208 116.816 296.915 116.793 296.587 116.746C296.259 116.699 295.942 116.605 295.638 116.465C295.356 116.324 295.098 116.125 294.864 115.867C294.653 115.633 294.536 115.305 294.513 114.883C294.302 112.82 293.997 110.711 293.598 108.555C293.2 106.398 292.696 104.254 292.087 102.121C291.501 99.9648 290.786 97.832 289.942 95.7227C289.122 93.6133 288.173 91.5508 287.095 89.5352C286.907 89.1836 286.743 88.8555 286.602 88.5508C286.485 88.2461 286.427 87.9531 286.427 87.6719C286.427 87.3203 286.579 86.9453 286.884 86.5469C287.212 86.125 287.61 85.7383 288.079 85.3867C288.571 85.0352 289.098 84.7539 289.661 84.543C290.247 84.3086 290.809 84.1914 291.348 84.1914C292.239 84.1914 293.024 84.8125 293.704 86.0547C294.384 87.2734 295.016 89.2305 295.602 91.9258C295.72 92.3945 295.813 92.7227 295.884 92.9102C295.954 93.0977 296.048 93.1914 296.165 93.1914C296.423 93.1914 296.587 92.793 296.657 91.9961C296.938 89.7695 297.419 87.8594 298.098 86.2656C298.778 84.6484 299.622 83.3242 300.63 82.293C301.661 81.2383 302.833 80.4648 304.145 79.9727C305.481 79.4805 306.946 79.2344 308.54 79.2344C309.454 79.2344 310.38 79.3164 311.317 79.4805C312.255 79.6445 313.098 79.8906 313.848 80.2188C314.598 80.5469 315.208 80.9453 315.677 81.4141C316.145 81.8828 316.38 82.4102 316.38 82.9961C316.38 83.418 316.286 83.9219 316.098 84.5078C315.934 85.0703 315.712 85.6211 315.43 86.1602C315.149 86.6758 314.821 87.1211 314.446 87.4961C314.095 87.8477 313.731 88.0234 313.356 88.0234C312.934 88.0234 312.524 87.9062 312.126 87.6719C311.727 87.4141 311.294 87.1445 310.825 86.8633C310.38 86.582 309.899 86.3242 309.384 86.0898C308.891 85.832 308.329 85.7031 307.696 85.7031ZM343.003 104.301C343.682 103.715 344.35 103.422 345.007 103.422C345.382 103.422 345.722 103.516 346.026 103.703C346.331 103.891 346.671 104.184 347.046 104.582C347.397 105.121 347.643 105.566 347.784 105.918C347.948 106.246 348.03 106.574 348.03 106.902C348.03 107.605 347.679 108.273 346.975 108.906C345.85 109.844 344.632 110.688 343.319 111.438C342.007 112.164 340.636 112.785 339.206 113.301C337.776 113.816 336.3 114.203 334.776 114.461C333.253 114.742 331.741 114.883 330.241 114.883C328.343 114.883 326.561 114.637 324.897 114.145C323.233 113.676 321.745 112.996 320.432 112.105C319.143 111.215 318.054 110.148 317.163 108.906C316.272 107.641 315.64 106.223 315.265 104.652C315.054 103.996 314.854 103.574 314.667 103.387C314.503 103.176 314.222 103.07 313.823 103.07C312.956 103.07 312.288 102.859 311.819 102.438C311.35 102.016 311.116 101.406 311.116 100.609C311.116 100.281 311.14 100.07 311.186 99.9766L311.257 99.2734C311.374 98.4297 311.597 97.8203 311.925 97.4453C312.276 97.0703 312.815 96.8828 313.542 96.8828H314.069C315.054 96.8828 315.745 96.4258 316.143 95.5117C316.87 93.8945 317.796 92.418 318.921 91.082C320.046 89.7461 321.311 88.6094 322.718 87.6719C324.124 86.7109 325.624 85.9727 327.218 85.457C328.835 84.918 330.475 84.6484 332.14 84.6484C333.874 84.6484 335.491 84.9062 336.991 85.4219C338.515 85.9141 339.839 86.6055 340.964 87.4961C342.089 88.3867 342.968 89.4297 343.6 90.625C344.257 91.8203 344.585 93.1094 344.585 94.4922C344.585 95.4531 344.397 96.332 344.022 97.1289C343.647 97.9258 343.108 98.6289 342.405 99.2383C341.702 99.8242 340.847 100.305 339.839 100.68C338.854 101.055 337.729 101.301 336.464 101.418L324.265 102.648C323.796 102.648 323.409 102.766 323.104 103C322.823 103.234 322.682 103.551 322.682 103.949C322.682 104.559 322.905 105.145 323.35 105.707C323.819 106.27 324.429 106.773 325.179 107.219C325.952 107.641 326.831 107.98 327.815 108.238C328.823 108.496 329.854 108.625 330.909 108.625C331.917 108.625 332.948 108.531 334.003 108.344C335.081 108.133 336.136 107.84 337.167 107.465C338.222 107.09 339.241 106.645 340.225 106.129C341.21 105.59 342.136 104.98 343.003 104.301ZM335.163 95.2305C335.515 95.1602 335.819 94.9961 336.077 94.7383C336.335 94.457 336.464 94.1172 336.464 93.7188C336.464 93.3672 336.335 93.0391 336.077 92.7344C335.819 92.4297 335.468 92.1602 335.022 91.9258C334.577 91.668 334.061 91.4688 333.475 91.3281C332.89 91.1875 332.268 91.1172 331.612 91.1172C330.651 91.1172 329.667 91.2578 328.659 91.5391C327.651 91.8203 326.737 92.1953 325.917 92.6641C325.097 93.1094 324.429 93.6133 323.913 94.1758C323.397 94.7148 323.14 95.2539 323.14 95.793C323.14 96.332 323.468 96.6016 324.124 96.6016C324.522 96.6016 325.167 96.5547 326.057 96.4609C326.948 96.3672 327.932 96.2617 329.011 96.1445C330.089 96.0039 331.179 95.8516 332.28 95.6875C333.382 95.5234 334.343 95.3711 335.163 95.2305ZM357.954 81.4844C359.524 81.4844 361.142 81.6953 362.806 82.1172C364.47 82.5156 365.993 83.043 367.376 83.6992C368.759 84.332 369.895 85.0469 370.786 85.8438C371.677 86.6406 372.122 87.4141 372.122 88.1641C372.122 88.5391 371.958 88.9609 371.63 89.4297C371.302 89.875 370.903 90.3086 370.435 90.7305C369.966 91.1289 369.45 91.4688 368.888 91.75C368.349 92.0078 367.868 92.1367 367.446 92.1367C366.884 92.1367 366.251 91.9023 365.548 91.4336C364.868 90.9648 364.106 90.4492 363.263 89.8867C362.442 89.3008 361.54 88.7734 360.556 88.3047C359.571 87.8359 358.505 87.6016 357.356 87.6016C356.606 87.6016 355.985 87.7891 355.493 88.1641C355.024 88.5156 354.79 89.0195 354.79 89.6758C354.79 90.2617 355.071 90.8594 355.634 91.4688C356.196 92.0547 356.935 92.6641 357.849 93.2969C358.786 93.9297 359.841 94.5977 361.013 95.3008C362.185 96.0039 363.38 96.7539 364.599 97.5508C365.841 98.3477 367.048 99.2148 368.22 100.152C369.392 101.09 370.435 102.109 371.349 103.211C372.286 104.312 373.036 105.52 373.599 106.832C374.161 108.121 374.442 109.527 374.442 111.051C374.442 112.363 374.208 113.559 373.739 114.637C373.27 115.715 372.603 116.641 371.735 117.414C370.868 118.188 369.837 118.785 368.642 119.207C367.446 119.629 366.134 119.84 364.704 119.84C362.899 119.84 361.235 119.559 359.712 118.996C358.188 118.457 356.876 117.707 355.774 116.746C354.673 115.785 353.806 114.637 353.173 113.301C352.563 111.965 352.259 110.5 352.259 108.906C352.259 106.844 352.622 105.344 353.349 104.406C354.099 103.469 355.27 103 356.864 103C357.849 103 358.634 103.188 359.22 103.562C359.806 103.938 360.099 104.395 360.099 104.934C360.099 105.215 360.052 105.508 359.958 105.812C359.864 106.094 359.759 106.398 359.642 106.727C359.548 107.031 359.454 107.359 359.36 107.711C359.29 108.062 359.255 108.414 359.255 108.766C359.255 109.375 359.395 109.961 359.677 110.523C359.958 111.086 360.333 111.578 360.802 112C361.294 112.445 361.856 112.797 362.489 113.055C363.122 113.312 363.79 113.441 364.493 113.441C366.368 113.441 367.306 112.668 367.306 111.121C367.306 109.902 366.825 108.754 365.864 107.676C364.903 106.574 363.696 105.508 362.243 104.477C360.79 103.422 359.22 102.367 357.532 101.312C355.868 100.258 354.31 99.1562 352.856 98.0078C351.403 96.8594 350.196 95.6406 349.235 94.3516C348.274 93.0391 347.794 91.6211 347.794 90.0977C347.794 88.832 348.052 87.6719 348.567 86.6172C349.106 85.5625 349.833 84.6602 350.747 83.9102C351.661 83.1367 352.728 82.5391 353.946 82.1172C355.188 81.6953 356.524 81.4844 357.954 81.4844Z" fill="white"/>
<defs>
<filter id="filter0_d" x="245.054" y="62.1857" width="44.3028" height="28.8143" filterUnits="userSpaceOnUse" color-interpolation-filters="sRGB">
<feFlood flood-opacity="0" result="BackgroundImageFix"/>
<feColorMatrix in="SourceAlpha" type="matrix" values="0 0 0 0 0 0 0 0 0 0 0 0 0 0 0 0 0 0 127 0"/>
<feOffset dy="4"/>
<feGaussianBlur stdDeviation="2"/>
<feColorMatrix type="matrix" values="0 0 0 0 0 0 0 0 0 0 0 0 0 0 0 0 0 0 0.25 0"/>
<feBlend mode="normal" in2="BackgroundImageFix" result="effect1_dropShadow"/>
<feBlend mode="normal" in="SourceGraphic" in2="effect1_dropShadow" result="shape"/>
</filter>
</defs>
</svg>
