<svg width="100" height="100" viewBox="0 0 100 100" fill="none" xmlns="http://www.w3.org/2000/svg">
<g clip-path="url(#clip0)">
<g clip-path="url(#clip1)">
<path d="M30.1348 39.0057C31.7368 45.1117 35.0744 52.4535 36.543 55.3611L47.3569 58.2233C49.3595 38.733 46.8229 28.5109 45.8884 24.1494C45.2459 21.151 33.8729 10.5199 28.1322 16.6532C22.3914 22.7864 17.7188 37.9153 21.1899 40.5049C23.9668 42.5766 28.3102 40.3686 30.1348 39.0057Z" fill="white"/>
<path d="M56.7022 25.1035C52.0029 38.515 52.6081 53.4076 53.4981 59.1774L66.1811 56.0426C70.9591 48.6973 74.1469 42.7914 76.1727 38.4605C78.6591 33.1449 79.4826 27.2842 79.678 24.5583C80.879 7.80266 78.5389 2.65418 75.66 1.79695C72.4559 0.842881 62.5765 8.33914 56.7022 25.1035Z" fill="white"/>
<path d="M38.4121 51.5448C36.3828 51.5448 33.0274 42.3676 31.6033 37.779C36.3027 35.1066 41.0377 29.8507 42.8178 27.5569C44.2863 35.3257 40.9487 51.5448 38.4121 51.5448Z" fill="#FF8787"/>
<path d="M61.2415 26.6028C65.9409 12.4281 72.0999 8.79353 74.5921 8.74805C78.7574 9.51129 77.0396 24.2403 75.6601 31.5094C71.0675 46.5564 64.8462 52.0446 62.3095 52.9078C58.3578 44.621 59.9509 31.9183 61.2415 26.6028Z" fill="#FF8787"/>
<g filter="url(#filter0_d)">
<path d="M35.475 57.1885V60.4596C35.475 65.9114 36.632 69.1826 37.2105 70.1366C37.522 70.5001 38.3053 71.227 38.9461 71.227C39.5869 71.227 40.3701 70.8635 40.6817 70.6818C43.8413 69.1371 50.3474 66.0477 51.095 66.0477C51.8427 66.0477 52.5637 66.4111 52.8307 66.5929C56.1238 68.0467 62.9503 70.9544 63.9115 70.9544C64.8728 70.9544 65.3801 69.7731 65.5136 69.1826C65.9142 66.0023 66.6884 59.0967 66.5816 56.9159C66.4482 54.19 65.2466 53.6448 63.1105 53.6448C61.4017 53.6448 59.5504 54.3717 58.8384 54.7352L53.8987 57.1885C53.2757 57.6429 51.8427 58.5515 51.095 58.5515C50.3474 58.5515 49.1815 57.8245 48.6919 57.4611L44.0193 55.0078C42.9512 54.4171 40.2811 53.2632 38.1451 53.3722C36.009 53.4812 35.475 55.9618 35.475 57.1885Z" fill="#FF8787"/>
<path d="M46.4224 60.8685C44.9271 59.342 42.4173 58.8695 41.3493 58.8241C40.6016 58.8241 40.5037 59.2784 40.5482 59.5056C40.6372 59.8236 41.189 60.6231 42.6843 61.2774C44.1795 61.9316 43.3073 62.5494 42.6843 62.7766C41.8833 63.0946 40.3079 63.976 40.4147 64.9573C40.5215 65.9386 41.5272 65.7297 42.0167 65.5025L46.1554 63.7307C46.8675 63.4127 47.9177 62.395 46.4224 60.8685Z" fill="white"/>
<path d="M55.3672 61.1411C56.8625 59.6145 59.3724 59.142 60.4405 59.0966C61.1881 59.0966 61.286 59.551 61.2415 59.7781C61.1525 60.0961 60.6007 60.8958 59.1054 61.5499C57.6101 62.2042 58.4824 62.8221 59.1054 63.0492C59.9065 63.3673 61.4818 64.2486 61.375 65.2299C61.2682 66.2113 60.2624 66.0022 59.7729 65.7751L55.6343 64.0032C54.9223 63.6853 53.872 62.6676 55.3672 61.1411Z" fill="white"/>
</g>
<path d="M39.1786 86.0971C39.1786 85.7553 39.2188 85.3731 39.2991 84.9508C39.3795 84.5284 39.4196 84.0657 39.4196 83.5629C39.4196 83.221 39.269 82.9596 38.9676 82.7785C38.6864 82.5975 38.365 82.3964 38.0034 82.1751C37.6417 81.9539 37.3103 81.6723 37.009 81.3304C36.7277 80.9885 36.5871 80.4957 36.5871 79.8521C36.5871 79.3895 36.7076 78.9269 36.9486 78.4643C37.2098 78.0017 37.5815 77.5793 38.0636 77.1971C39.2489 76.3122 40.4743 75.5177 41.74 74.8138C43.0257 74.1098 44.3014 73.5165 45.567 73.0338C46.8527 72.5511 48.1183 72.179 49.3638 71.9175C50.6094 71.656 51.8047 71.5253 52.9498 71.5253C54.8784 71.5253 56.6864 71.8873 58.3739 72.6114C60.0815 73.3154 61.5581 74.2908 62.8036 75.5378C64.0692 76.7647 65.0636 78.2129 65.7869 79.8822C66.5302 81.5315 66.9018 83.3015 66.9018 85.1921C66.9018 87.0428 66.51 88.802 65.7266 90.472C64.9632 92.1213 63.9286 93.569 62.6228 94.8159C61.317 96.0628 59.7802 97.0489 58.0123 97.7731C56.2645 98.5172 54.4163 98.8887 52.4676 98.8887C50.5591 98.8887 48.7913 98.5669 47.1641 97.9233C45.5369 97.2797 44.1306 96.3949 42.9453 95.269C41.76 94.1225 40.836 92.7744 40.173 91.2263C39.51 89.6576 39.1786 87.9473 39.1786 86.0971ZM53.1306 93.4583C53.9743 93.4583 54.8482 93.2876 55.7522 92.946C56.6562 92.6036 57.48 92.111 58.2233 91.4674C58.9866 90.8032 59.6094 89.9991 60.0915 89.0534C60.5938 88.1086 60.8448 87.0428 60.8448 85.8559C60.8448 84.649 60.6239 83.5227 60.1819 82.4769C59.74 81.4309 59.1272 80.5258 58.3438 79.7616C57.5804 78.9771 56.6663 78.3637 55.6016 77.9212C54.5569 77.4788 53.4219 77.2575 52.1964 77.2575C49.9665 77.2575 48.259 77.8408 47.0736 79.0073C45.8884 80.1537 45.2958 81.9237 45.2958 84.3172C45.2958 85.6245 45.4866 86.8411 45.8683 87.9679C46.2701 89.074 46.8226 90.0394 47.5257 90.8641C48.2288 91.6682 49.0524 92.3024 49.9967 92.7649C50.961 93.2275 52.0056 93.4583 53.1306 93.4583Z" fill="white"/>
</g>
</g>
<defs>
<filter id="filter0_d" x="31.475" y="53.365" width="39.1167" height="25.8619" filterUnits="userSpaceOnUse" color-interpolation-filters="sRGB">
<feFlood flood-opacity="0" result="BackgroundImageFix"/>
<feColorMatrix in="SourceAlpha" type="matrix" values="0 0 0 0 0 0 0 0 0 0 0 0 0 0 0 0 0 0 127 0"/>
<feOffset dy="4"/>
<feGaussianBlur stdDeviation="2"/>
<feColorMatrix type="matrix" values="0 0 0 0 0 0 0 0 0 0 0 0 0 0 0 0 0 0 0.25 0"/>
<feBlend mode="normal" in2="BackgroundImageFix" result="effect1_dropShadow"/>
<feBlend mode="normal" in="SourceGraphic" in2="effect1_dropShadow" result="shape"/>
</filter>
<clipPath id="clip0">
<rect width="100" height="100" fill="white"/>
</clipPath>
<clipPath id="clip1">
<rect width="60" height="121" fill="white" transform="translate(20)"/>
</clipPath>
</defs>
</svg>
